<?xml version="1.0" encoding="UTF-8" standalone="no"?>
<svg width="60px" height="60px" viewBox="0 0 60 60" version="1.1" xmlns="http://www.w3.org/2000/svg" xmlns:xlink="http://www.w3.org/1999/xlink" xmlns:sketch="http://www.bohemiancoding.com/sketch/ns">
    <!-- Generator: Sketch Beta 3.1 (8620) - http://www.bohemiancoding.com/sketch -->
    <title>icon-menu</title>
    <desc>Created with Sketch Beta.</desc>
    <defs></defs>
    <g id="Page-1" stroke="none" stroke-width="1" fill="none" fill-rule="evenodd" sketch:type="MSPage">
        <g id="Desktop-HD" sketch:type="MSArtboardGroup" transform="translate(-1140.000000, -36.000000)" fill="#333333">
            <path d="M1170,96 C1186.56854,96 1200,82.5685425 1200,66 C1200,49.4314575 1186.56854,36 1170,36 C1153.43146,36 1140,49.4314575 1140,66 C1140,82.5685425 1153.43146,96 1170,96 Z M1155,53.4074074 L1155,58.5925926 L1185.18519,58.5925926 L1185.18519,53.4074074 L1155,53.4074074 Z M1155,63.4074074 L1155,68.5925926 L1185.18519,68.5925926 L1185.18519,63.4074074 L1155,63.4074074 Z M1155,73.4074074 L1155,78.5925926 L1185.18519,78.5925926 L1185.18519,73.4074074 L1155,73.4074074 Z" id="icon-menu" sketch:type="MSShapeGroup"></path>
        </g>
    </g>
</svg>